HIERARCHY
ROOT Hips
{
  OFFSET 0 0 0
  CHANNELS 6 Xposition Yposition Zposition Zrotation Yrotation Xrotation
  JOINT LeftThigh
  {
    OFFSET 8.409438 0 -5.917753
    CHANNELS 3 Zrotation Yrotation Xrotation
    JOINT LeftLeg
    {
      OFFSET 0 0 -42.358652
      CHANNELS 3 Zrotation Yrotation Xrotation
      JOINT LeftFoot
      {
        OFFSET 0 0 -39.357303
        CHANNELS 3 Zrotation Yrotation Xrotation
      }
    }
  }
  JOINT RightThigh
  {
    OFFSET -8.409438 0 -5.917753
    CHANNELS 3 Zrotation Yrotation Xrotation
    JOINT RightLeg
    {
      OFFSET 0 0 -42.358652
      CHANNELS 3 Zrotation Yrotation Xrotation
      JOINT RightFoot
      {
        OFFSET 0 0 -39.357303
        CHANNELS 3 Zrotation Yrotation Xrotation
      }
    }
  }
  JOINT SpineLow
  {
    OFFSET 0 0 4.719101
    CHANNELS 3 Zrotation Yrotation Xrotation
    JOINT SpineMid
    {
      OFFSET 0 0 12.899191
      CHANNELS 3 Zrotation Yrotation Xrotation
      JOINT Chest
      {
        OFFSET 0 0 12.899191
        CHANNELS 3 Zrotation Yrotation Xrotation
        JOINT LeftShoulder
        {
          OFFSET 7.550562 1.41573 9.438202
          CHANNELS 3 Zrotation Yrotation Xrotation
          JOINT LeftArm
          {
            OFFSET 9.155056 0 4.247191
            CHANNELS 3 Zrotation Yrotation Xrotation
            JOINT LeftForearm
            {
              OFFSET 0 0 25.771955
              CHANNELS 3 Zrotation Yrotation Xrotation
              JOINT LeftHand
              {
                OFFSET 0 0 25.197169
                CHANNELS 3 Zrotation Yrotation Xrotation
              }
            }
          }
        }
        JOINT RightShoulder
        {
          OFFSET -7.550562 1.41573 9.438202
          CHANNELS 3 Zrotation Yrotation Xrotation
          JOINT RightArm
          {
            OFFSET -9.155056 0 4.247191
            CHANNELS 3 Zrotation Yrotation Xrotation
            JOINT RightForearm
            {
              OFFSET 0 0 -25.771955
              CHANNELS 3 Zrotation Yrotation Xrotation
              JOINT RightHand
              {
                OFFSET 0 0 -25.197169
                CHANNELS 3 Zrotation Yrotation Xrotation
              }
            }
          }
        }
        JOINT Neck
        {
          OFFSET 0 0 15.101124
          CHANNELS 3 Zrotation Yrotation Xrotation
          JOINT Head
          {
            OFFSET 0 0 11.325843
            CHANNELS 3 Zrotation Yrotation Xrotation
            End Site
            {
              OFFSET 0 0 14.157303
            }
          }
        }
      }
    }
  }
}
MOTION
Frames: 17
Frame Time: 0.0
0.0  93.25843  0.0  -0.040719  10.261092  -91.514335  -6.956223  -15.074972  -8.647995  -0.888147  -2.461416  13.954948  7.101449  0.006658  5.85464  -23.122155  4.235807  -6.697169  -14.911804  9.105857  7.694577  2.134981  0.182483  0.89491  2.916851  0.649078  -0.068037  7.972862  1.779422  -0.107468  7.972862  1.779422  -0.107468  -46.062589  19.52966  3.423969  156.38387  43.344907  -141.049943  -31.968473  23.538181  75.567982  83.03089  -20.859097  -15.356935  6.906279  -29.444456  30.238865  90.090935  61.710448  45.217083  23.991778  26.4957  -22.76345  85.312114  -0.705804  30.844027  -19.708543  0.767741  14.46638  -14.809292  0.109062  10.887901  
0.0  93.25843  0.0  -0.123143  10.520992  -91.545887  -7.106582  -15.349127  -9.082019  -1.035111  -2.084055  14.769532  7.130532  0.020992  5.851767  -23.150612  4.146998  -6.642545  -15.137325  9.239991  7.841341  2.1649  0.198589  0.897634  2.869587  0.632927  -0.091823  7.842979  1.738128  -0.175583  7.842979  1.738128  -0.175583  -45.945492  19.607719  3.486867  156.569542  43.325083  -141.118766  -32.753911  23.790577  75.103153  83.018348  -21.037716  -15.622931  6.803194  -29.3291  30.326161  90.595879  61.474548  45.556894  23.869142  26.546022  -22.882827  85.331659  -0.202811  31.322672  -19.519879  0.868183  15.029924  -14.671599  0.170963  11.313741  
0.0  93.25843  0.0  -0.171028  10.973936  -91.523811  -7.892724  -15.626961  -9.904982  -0.930738  -1.722685  15.915018  7.254807  0.084237  5.953678  -23.503623  4.038362  -6.750966  -15.636631  9.390531  7.949994  2.49496  0.319731  0.934833  2.795136  0.622395  -0.102727  7.639136  1.710503  -0.208528  7.639135  1.710503  -0.208528  -45.791853  19.595265  3.516821  156.27764  43.315599  -141.141955  -33.518909  23.924247  74.703579  83.350577  -21.091083  -16.098133  6.755081  -29.256209  30.306397  90.362221  61.371021  45.407158  23.802022  26.680656  -22.968046  85.417934  0.217124  31.50773  -19.228976  0.980912  15.576703  -14.457616  0.245596  11.726972  
0.0  93.25843  0.0  -0.256216  11.217803  -91.596864  -7.975366  -15.864826  -10.382399  -1.070554  -1.303694  16.893187  7.312884  0.098102  5.934488  -23.46925  3.938088  -6.7169  -15.816201  9.590651  8.203836  2.506502  0.346809  0.928015  2.728072  0.606549  -0.090684  7.456081  1.665737  -0.179179  7.456081  1.665737  -0.179179  -45.602775  19.609538  3.484425  156.292498  43.342925  -141.195291  -34.045637  23.731207  74.368587  83.448359  -21.059143  -16.388211  6.787608  -29.124993  30.190609  89.548747  61.368327  44.718888  23.938273  26.966763  -23.302083  85.427929  0.235993  31.443682  -19.047248  1.036007  16.026567  -14.323997  0.277584  12.065889  
0.0  93.25843  0.0  -0.302206  11.522603  -91.658604  -8.379588  -16.049693  -11.058604  -0.893981  -0.986342  18.183517  7.377015  0.156492  5.870865  -23.681177  3.820304  -6.835885  -16.176862  9.856005  8.441003  2.821877  0.442548  0.989016  2.645423  0.596375  -0.074754  7.230508  1.636059  -0.13889  7.230508  1.636059  -0.13889  -45.390175  19.597037  3.452679  156.189654  43.416836  -141.283086  -34.577375  23.217685  74.128037  83.512359  -20.780886  -16.550696  7.017015  -29.108847  30.083031  88.649242  61.26822  43.952185  23.611103  27.051417  -23.052827  85.675283  0.685184  31.263793  -18.774418  1.134127  16.468181  -14.123177  0.344891  12.399555  
0.0  93.25843  0.0  -0.387278  11.69831  -91.773139  -8.220752  -16.180834  -11.505712  -1.129448  -0.612612  19.176282  7.463033  0.183427  5.822793  -23.523288  3.683607  -6.852885  -16.406588  10.176924  8.808837  2.807953  0.496946  0.992914  2.563574  0.579804  -0.060258  7.007068  1.589171  -0.103095  7.007068  1.589171  -0.103095  -45.113801  19.681645  3.419864  156.100273  43.530206  -141.478471  -34.629927  22.714438  74.142252  83.833415  -20.347503  -16.946136  7.036206  -28.963342  29.977732  87.772798  61.200518  43.141657  23.467229  27.200123  -23.511527  85.610418  0.658773  31.007844  -18.581325  1.217684  16.855832  -13.981769  0.401085  12.692442  
0.0  93.25843  0.0  -0.443346  11.913721  -91.845038  -8.136236  -16.284655  -12.085722  -1.218216  -0.307624  20.374033  7.572398  0.251267  5.801964  -23.580119  3.512602  -7.069012  -17.206063  10.547422  9.078798  3.114496  0.594361  1.047303  2.462266  0.564662  -0.066686  6.729929  1.548391  -0.124629  6.729929  1.548391  -0.124628  -44.724458  19.713388  3.471509  156.167459  43.652517  -141.740781  -34.536637  22.377486  74.328497  84.133756  -19.783509  -17.238485  7.59722  -29.054482  30.181464  86.882036  61.290461  42.484831  22.751577  27.06985  -23.640619  85.601896  0.902545  30.697697  -18.334078  1.380752  17.256743  -13.802033  0.518416  12.99733  
0.0  93.25843  0.0  -0.561654  11.885001  -91.938577  -7.563006  -16.391376  -12.494059  -1.668147  0.064743  21.277141  7.675458  0.29301  5.756242  -23.20378  3.296614  -7.251483  -17.439594  11.010656  9.618789  3.159106  0.647532  1.078899  2.390202  0.534458  -0.084115  6.532498  1.467555  -0.176898  6.532499  1.467555  -0.176898  -44.323686  19.891088  3.558085  156.179249  43.745374  -141.888889  -34.255614  21.992927  74.505963  84.531689  -19.141778  -17.597859  7.414691  -28.801288  30.316795  86.585651  61.118638  41.999546  22.053945  26.929303  -24.303606  85.440334  1.040507  30.2715  -18.162996  1.55347  17.631282  -13.679834  0.64191  13.282838  
0.0  93.25843  0.0  -0.483581  12.162563  -91.833007  -7.251624  -16.295868  -13.067677  -1.930239  0.35143  22.344935  7.75869  0.332954  5.693532  -23.211241  3.111491  -7.732792  -17.865244  11.49053  10.140248  3.259458  0.736098  1.121363  2.240521  0.537416  -0.132969  6.122207  1.479831  -0.313383  6.122207  1.479831  -0.313383  -43.738104  19.99781  3.749776  156.388411  43.809599  -141.934956  -33.854854  21.866124  74.788264  85.007823  -18.385647  -17.976509  8.031396  -28.848442  30.807411  86.156578  61.139436  41.692891  20.783515  26.699989  -24.78095  85.320933  1.250336  29.692414  -17.902581  1.768428  18.020627  -13.492029  0.79957  13.580122  
0.0  93.25843  0.0  -0.607996  11.634508  -91.866205  -6.195658  -16.320948  -13.42079  -2.454449  0.61274  23.127701  7.926481  0.39303  5.671492  -22.310869  2.692469  -8.015756  -17.983962  12.099788  10.766631  3.261776  0.853511  1.124086  2.223743  0.500771  -0.156045  6.075935  1.381811  -0.380148  6.075934  1.381811  -0.380148  -43.26188  20.019309  3.836659  156.588433  43.783562  -141.888007  -33.290986  21.739815  75.150823  85.699692  -17.436102  -18.407252  7.693012  -28.463611  30.896581  86.341854  60.765306  41.441835  19.522839  26.406263  -25.747193  85.28953  1.423773  28.806836  -17.75073  1.941289  18.305438  -13.384266  0.925694  13.798056  
0.0  93.25843  0.0  -0.518286  11.353622  -91.661736  -5.345255  -16.062789  -13.894846  -2.827505  0.738508  23.96562  8.123933  0.446556  5.618513  -21.591676  2.380693  -8.609671  -18.164181  12.768189  11.442794  3.153477  0.951149  1.109153  2.109781  0.508268  -0.211437  5.763182  1.406511  -0.53319  5.763182  1.406511  -0.53319  -42.46766  19.962889  4.013013  157.113423  43.719344  -141.714177  -32.383585  21.714082  75.726744  86.70109  -16.226694  -18.851205  8.232226  -28.384423  31.187871  85.861285  60.711424  41.062147  17.886234  26.041827  -26.940869  85.409972  1.554418  27.551559  -17.391475  2.110233  18.588693  -13.120819  1.055376  14.013551  
0.0  93.25843  0.0  -0.720635  10.197109  -91.533529  -3.819903  -16.070179  -14.259909  -3.335508  0.782792  24.597988  8.239373  0.536088  5.590595  -20.291641  1.705393  -9.238094  -18.095634  13.514284  12.249539  3.153953  1.137336  1.08968  2.147386  0.463336  -0.245947  5.865564  1.287148  -0.630613  5.865564  1.287148  -0.630613  -41.862966  19.805394  4.10985  157.805958  43.60223  -141.322524  -31.080229  21.42484  76.495908  88.012744  -14.615017  -19.224428  7.807918  -27.87645  31.027782  86.026409  60.094674  40.653542  16.10741  25.499349  -28.511202  85.689627  1.616621  25.953184  -17.14748  2.22754  18.739213  -12.941829  1.146744  14.128424  
0.0  93.25843  0.0  -0.906349  8.570747  -91.336024  -1.983247  -15.999941  -14.505212  -3.851524  0.696989  25.060027  8.303116  0.641198  5.588675  -18.627315  0.930133  -10.004278  -17.62915  14.36855  13.20154  3.029288  1.255499  1.050167  2.176888  0.446067  -0.306312  5.945192  1.245681  -0.796449  5.945192  1.245681  -0.796449  -40.724224  19.524825  4.469209  158.837669  43.471276  -140.784447  -29.19232  20.829485  77.623666  89.554633  -12.515606  -19.462441  7.748754  -27.550986  30.846456  85.929266  59.420102  40.062111  14.17184  24.677477  -30.472423  86.018666  1.492066  24.305858  -16.6295  2.28753  18.924347  -12.555685  1.202678  14.26623  
0.0  93.25843  0.0  -1.046538  6.434415  -91.112893  -0.014002  -15.815058  -14.531112  -4.308051  0.442865  25.303704  8.221122  0.758772  5.53012  -16.665638  0.090217  -10.86244  -17.323631  15.188163  14.032584  3.045949  1.483748  1.019472  2.335235  0.41821  -0.354552  6.377459  1.176097  -0.927825  6.377459  1.176097  -0.927825  -40.032458  19.249516  4.734074  160.166686  43.262033  -140.088458  -26.721381  19.70524  79.052347  91.353818  -9.880523  -19.510622  6.998768  -27.03624  30.448127  86.081914  58.493027  39.603523  12.068048  23.45494  -32.842539  86.306439  1.078066  22.968384  -16.347807  2.366133  19.027885  -12.347082  1.267708  14.344431  
0.0  93.25843  0.0  -1.093555  3.75133  -90.857223  1.676992  -15.484683  -14.381737  -4.643457  0.288002  25.218908  8.283409  0.813266  5.544395  -14.493067  -0.726849  -11.843127  -16.719211  15.921145  14.861675  3.207037  1.764008  1.015134  2.552949  0.41698  -0.401779  6.971762  1.18066  -1.052933  6.971761  1.18066  -1.052934  -39.300035  18.815039  5.010081  161.843162  42.895935  -139.286325  -23.629823  18.090985  80.803067  93.429654  -6.782207  -19.298888  6.197894  -26.603576  29.948513  86.452077  57.471422  39.423025  9.777908  21.788906  -35.610919  86.392746  0.523909  21.952374  -16.022334  2.409116  19.120941  -12.104512  1.307706  14.413577  
0.0  93.25843  0.0  -1.037579  0.562827  -90.517881  3.063865  -15.32979  -13.991062  -4.156475  -0.01643  25.225084  8.264071  1.029713  5.428097  -12.323316  -1.455743  -12.942475  -15.801209  16.470846  15.624903  3.195568  1.977643  0.947613  2.827829  0.437349  -0.444126  7.722095  1.245411  -1.161101  7.722095  1.245411  -1.161101  -38.623604  18.200419  5.147244  163.762804  42.368059  -138.453778  -20.143963  15.800492  82.654244  95.415337  -3.636298  -18.713185  5.385064  -26.196373  29.4013  86.997063  56.420828  39.551557  7.287029  19.677163  -38.829178  86.093068  -0.234571  21.237561  -15.669813  2.436379  19.172104  -11.840945  1.33791  14.450717  
0.0  93.25843  0.0  -0.895539  -2.948047  -90.128864  3.622755  -15.349048  -13.406961  -2.821929  -0.170478  25.162923  8.512388  1.241145  5.366889  -10.369329  -2.029807  -14.139213  -14.676263  16.77995  16.27546  3.236545  2.132524  0.864876  3.110406  0.477015  -0.473912  8.493363  1.362224  -1.231804  8.493363  1.362224  -1.231804  -37.874384  17.413531  5.091751  165.883536  41.704678  -137.618515  -16.502328  12.918682  84.471567  97.149507  -0.623414  -17.696223  4.737456  -25.849386  28.693115  87.62709  55.220179  39.938656  4.632211  17.075335  -42.419317  85.396463  -1.352084  20.669806  -15.218182  2.45552  19.172099  -11.502447  1.366453  14.448704  
